<svg width="97" height="97" viewBox="0 0 97 97" fill="none" xmlns="http://www.w3.org/2000/svg">
<path d="M96.99 48.5C96.99 75.28 75.28 97 48.49 97C21.7 97 0 75.29 0 48.5C0 21.71 21.71 0 48.49 0C75.27 0 96.99 21.71 96.99 48.5Z" fill="#8B0A0F"/>
<path d="M96.99 48.5C96.99 75.28 75.28 97 48.49 97C21.7 97 0 75.29 0 48.5C0 21.71 21.71 0 48.49 0C75.27 0 96.99 21.71 96.99 48.5C96.99 21.72 75.28 0 48.49 0C21.7 0 0 21.71 0 48.5C0 75.29 21.71 97 48.49 97C75.27 97 96.99 75.29 96.99 48.5Z" fill="url(#paint0_linear_1_578)"/>
<mask id="mask0_1_578" style="mask-type:luminance" maskUnits="userSpaceOnUse" x="14" y="10" width="34" height="36">
<path d="M43.72 22.77C41.62 20.21 38.58 20.53 37.14 21.67C35.62 22.86 35.23 25.26 36.28 27.26C36.34 27.05 36.39 26.9 36.41 26.76C36.72 25.32 37.4 24.62 38.79 24.79C39.88 24.93 41.07 25.24 41.97 25.86C44.48 27.57 45.52 32.11 44.23 35.06C43.44 36.88 41.92 37.5 40.3 36.38C39.22 35.64 38.29 34.6 37.42 33.58C36.73 32.76 36.23 31.77 35.54 30.7C35.54 31.15 35.54 31.4 35.54 31.64C35.58 33.2 35.42 34.72 34.73 36.12C34.18 37.26 33.27 37.89 32.04 37.79C30.5 37.67 29.21 36.94 28.26 35.65C27.65 34.83 27.23 33.9 27.71 32.89C27.91 32.46 28.35 31.99 28.76 31.88C29.43 31.7 30.05 32.07 30.31 32.78C30.47 33.21 30.48 33.69 30.56 34.23C30.71 34.12 30.84 34.04 30.92 33.92C31.75 32.89 32.17 31.74 31.63 30.45C31.03 28.99 29.9 28.04 28.36 28.03C27.32 28.03 26.28 28.39 25.19 28.6C22.06 22.91 16.97 23.04 14.02 25.04C16.83 26.48 19.3 28.38 21.4 30.78C24.96 34.86 27 39.71 28.06 45.05C28.09 45.16 28.11 45.27 28.14 45.37H47.19V10.35L47.17 10.33C43.87 13.84 42.89 17.97 43.7 22.76" fill="white"/>
</mask>
<g mask="url(#mask0_1_578)">
<path d="M32.9507 -6.08908L-3.30695 25.3959L28.3026 61.797L64.5602 30.312L32.9507 -6.08908Z" fill="url(#paint1_linear_1_578)"/>
</g>
<mask id="mask1_1_578" style="mask-type:luminance" maskUnits="userSpaceOnUse" x="49" y="10" width="34" height="36">
<path d="M49.77 45.38H68.66C68.76 45.15 68.84 44.88 68.9 44.58C70.69 36.15 74.86 29.47 82.37 25.34C82.54 25.24 82.69 25.1 82.94 24.9C81.08 23.87 79.22 23.6 77.3 23.99C74.62 24.53 72.96 26.5 71.65 28.81C68.78 27.43 66.4 28.01 65.34 30.29C64.72 31.63 65.25 33.49 66.45 34.16C66.45 33.94 66.43 33.72 66.45 33.49C66.51 32.54 67.07 31.93 67.96 31.86C68.91 31.77 69.23 32.47 69.32 33.22C69.39 33.79 69.37 34.54 69.06 34.96C68.42 35.82 67.67 36.71 66.77 37.24C64.47 38.58 62.55 37.74 61.83 35.11C61.48 33.81 61.45 32.41 61.26 30.91C60.99 31.36 60.77 31.77 60.52 32.16C59.45 33.82 58.36 35.48 56.63 36.47C54.96 37.42 53.51 36.9 52.76 35.12C52.12 33.63 52.12 32.07 52.36 30.49C52.81 27.53 54.57 25.48 57.15 24.91C59.25 24.44 60.08 24.97 60.66 27.13C60.66 27.18 60.75 27.19 60.8 27.23C61.75 25 61.32 22.8 59.68 21.61C57.81 20.24 55.41 20.63 53.27 22.73C54.05 17.99 53.08 13.86 49.78 10.38V45.4L49.77 45.38Z" fill="white"/>
</mask>
<g mask="url(#mask1_1_578)">
<path d="M68.6809 -6.05677L32.4308 25.4216L64.0272 61.8076L100.277 30.3292L68.6809 -6.05677Z" fill="url(#paint2_linear_1_578)"/>
</g>
<mask id="mask2_1_578" style="mask-type:luminance" maskUnits="userSpaceOnUse" x="61" y="50" width="22" height="37">
<path d="M61.77 50V86.66L65.68 79.88L69.6 73.1L73.51 66.32L75.84 62.29L77.23 59.87L78.1 58.37H67.57V62.29H71.56L69.6 65.68L65.68 72.46V53.71H76.51L75.21 55.96H79.49L82.93 50H61.77Z" fill="white"/>
</mask>
<g mask="url(#mask2_1_578)">
<path d="M73.8294 39.5306L43.6122 65.7702L70.8616 97.1502L101.079 70.9106L73.8294 39.5306Z" fill="url(#paint3_linear_1_578)"/>
</g>
<mask id="mask3_1_578" style="mask-type:luminance" maskUnits="userSpaceOnUse" x="14" y="50" width="22" height="37">
<path d="M31.3 50V72.46L25.12 61.75L21.2 54.97L20.47 53.71H21.68V50H14.05L21.2 62.39L25.12 69.17L31.3 79.88L35.21 86.66V50H31.3Z" fill="white"/>
</mask>
<g mask="url(#mask3_1_578)">
<path d="M26.1182 39.5289L-4.099 65.7685L23.1504 97.1485L53.3676 70.9089L26.1182 39.5289Z" fill="url(#paint4_linear_1_578)"/>
</g>
<mask id="mask4_1_578" style="mask-type:luminance" maskUnits="userSpaceOnUse" x="39" y="49" width="20" height="38">
<path d="M53.75 50V67.16C53.75 69.97 54.02 74.73 54.38 77.86L54.24 77.95C53.47 76.05 52.29 73.1 51.34 70.96L44.04 49.99H39.46V86.51L41.88 74.26C41.88 71.27 43.77 66.5 43.46 63.33L43.59 63.24C44.36 65.28 45.91 69.09 46.86 71.45L53.71 86.5H58.29V49.97H53.76L53.75 50Z" fill="white"/>
</mask>
<g mask="url(#mask4_1_578)">
<path d="M50.1902 40.6816L21.3774 65.7018L47.5515 95.8435L76.3643 70.8234L50.1902 40.6816Z" fill="url(#paint5_linear_1_578)"/>
</g>
<defs>
<linearGradient id="paint0_linear_1_578" x1="-0.8224" y1="48.3533" x2="97.1676" y2="48.3533" gradientUnits="userSpaceOnUse">
<stop stop-color="#BB8225"/>
<stop offset="0.51" stop-color="#E08C29"/>
<stop offset="1" stop-color="#F6952C"/>
</linearGradient>
<linearGradient id="paint1_linear_1_578" x1="6.92518" y1="1.49553" x2="63.8106" y2="67.0039" gradientUnits="userSpaceOnUse">
<stop stop-color="#BB8225"/>
<stop offset="0.51" stop-color="#E08C29"/>
<stop offset="1" stop-color="#F6952C"/>
</linearGradient>
<linearGradient id="paint2_linear_1_578" x1="27.5301" y1="-16.3953" x2="84.4155" y2="49.1131" gradientUnits="userSpaceOnUse">
<stop stop-color="#BB8225"/>
<stop offset="0.51" stop-color="#E08C29"/>
<stop offset="1" stop-color="#F6952C"/>
</linearGradient>
<linearGradient id="paint3_linear_1_578" x1="10.5849" y1="-1.67191" x2="67.4703" y2="63.8365" gradientUnits="userSpaceOnUse">
<stop stop-color="#BB8225"/>
<stop offset="0.51" stop-color="#E08C29"/>
<stop offset="1" stop-color="#F6952C"/>
</linearGradient>
<linearGradient id="paint4_linear_1_578" x1="-16.4735" y1="21.8329" x2="40.4119" y2="87.3413" gradientUnits="userSpaceOnUse">
<stop stop-color="#BB8225"/>
<stop offset="0.51" stop-color="#E08C29"/>
<stop offset="1" stop-color="#F6952C"/>
</linearGradient>
<linearGradient id="paint5_linear_1_578" x1="-2.76633" y1="9.90828" x2="54.1191" y2="75.4167" gradientUnits="userSpaceOnUse">
<stop stop-color="#BB8225"/>
<stop offset="0.51" stop-color="#E08C29"/>
<stop offset="1" stop-color="#F6952C"/>
</linearGradient>
</defs>
</svg>
