<svg width="428" height="117" viewBox="0 0 428 117" fill="none" xmlns="http://www.w3.org/2000/svg">
<mask id="mask0_1_609" style="mask-type:luminance" maskUnits="userSpaceOnUse" x="202" y="85" width="14" height="14">
<path d="M202.67 92.09C207.1 93.05 207.88 93.83 208.84 98.26C209.8 93.83 210.58 93.05 215.01 92.09C210.58 91.13 209.8 90.35 208.84 85.92C207.88 90.35 207.1 91.13 202.67 92.09Z" fill="white"/>
</mask>
<g mask="url(#mask0_1_609)">
<path d="M203.459 82.9166L199.663 97.4903L214.237 101.286L218.033 86.7128L203.459 82.9166Z" fill="url(#paint0_linear_1_609)"/>
</g>
<mask id="mask1_1_609" style="mask-type:luminance" maskUnits="userSpaceOnUse" x="345" y="85" width="13" height="14">
<path d="M345.24 92.09C349.67 93.05 350.45 93.83 351.41 98.26C352.37 93.83 353.15 93.05 357.58 92.09C353.15 91.13 352.37 90.35 351.41 85.92C350.45 90.35 349.67 91.13 345.24 92.09Z" fill="white"/>
</mask>
<g mask="url(#mask1_1_609)">
<path d="M346.037 82.9103L342.241 97.484L356.814 101.28L360.611 86.7065L346.037 82.9103Z" fill="url(#paint1_linear_1_609)"/>
</g>
<mask id="mask2_1_609" style="mask-type:luminance" maskUnits="userSpaceOnUse" x="222" y="82" width="18" height="21">
<path d="M222.34 92.45C222.34 97.81 225.79 102.46 232.47 102.46C235.39 102.46 237.83 101.34 239.87 99.29V91.94H231.59V93.26H238.44V98.76C236.76 100.3 234.57 101.03 232.46 101.03C226.74 101.03 223.79 97.05 223.79 92.42C223.76 87.87 226.71 83.67 232.46 83.67C234.68 83.67 237.06 84.51 238.77 86.2L239.64 85.25C237.65 83.29 235.04 82.31 232.46 82.31C226.48 82.31 222.3 86.32 222.33 92.46" fill="white"/>
</mask>
<g mask="url(#mask2_1_609)">
<path d="M223.431 78.0268L217.397 101.194L238.764 106.759L244.798 83.5925L223.431 78.0268Z" fill="url(#paint2_linear_1_609)"/>
</g>
<mask id="mask3_1_609" style="mask-type:luminance" maskUnits="userSpaceOnUse" x="256" y="82" width="20" height="21">
<path d="M257.51 92.39C257.48 87.76 260.29 83.66 265.93 83.66C271.57 83.66 274.37 87.84 274.37 92.39C274.37 96.94 271.54 101.14 265.93 101.14C260.32 101.14 257.54 96.82 257.51 92.39ZM256.02 92.37C256.02 97.56 259.33 102.55 265.92 102.55C272.51 102.55 275.8 97.58 275.82 92.42C275.85 87.12 272.54 82.26 265.92 82.26C259.3 82.26 256.02 87.09 256.02 92.36" fill="white"/>
</mask>
<g mask="url(#mask3_1_609)">
<path d="M257.296 77.4409L251.088 101.276L274.603 107.401L280.812 83.5662L257.296 77.4409Z" fill="url(#paint3_linear_1_609)"/>
</g>
<mask id="mask4_1_609" style="mask-type:luminance" maskUnits="userSpaceOnUse" x="292" y="82" width="13" height="21">
<path d="M292.31 82.57V102.21H304.88V100.78H293.83V82.57H292.31Z" fill="white"/>
</mask>
<g mask="url(#mask4_1_609)">
<path d="M293.123 79.5182L287.535 100.972L304.092 105.285L309.681 83.8311L293.123 79.5182Z" fill="url(#paint4_linear_1_609)"/>
</g>
<mask id="mask5_1_609" style="mask-type:luminance" maskUnits="userSpaceOnUse" x="320" y="82" width="18" height="21">
<path d="M322.01 84.01H327.14C332.81 84.01 335.5 88.08 335.58 92.17C335.66 96.38 332.97 100.75 327.14 100.75H322.01V84V84.01ZM320.5 82.57V102.21H327.15C334.02 102.21 337.22 97.16 337.11 92.17C337 87.34 333.8 82.57 327.15 82.57H320.5Z" fill="white"/>
</mask>
<g mask="url(#mask5_1_609)">
<path d="M321.579 78.5058L315.726 100.976L336.174 106.302L342.027 83.832L321.579 78.5058Z" fill="url(#paint5_linear_1_609)"/>
</g>
<mask id="mask6_1_609" style="mask-type:luminance" maskUnits="userSpaceOnUse" x="277" y="19" width="48" height="55">
<path d="M300.87 19.49L287.92 49.33C289.85 48.98 291.83 48.8 293.85 48.8C295.14 48.8 296.42 48.87 297.67 49.02L300.61 41.95L303.91 50.34L305.57 54.57L305.88 55.36C302.76 54.16 299.41 53.41 295.92 53.2C295.23 53.15 294.54 53.13 293.84 53.13C291.08 53.13 288.4 53.47 285.83 54.09L282.44 61.91L279.83 67.92L277.51 73.26H287.56L291.68 63.39C292.39 63.31 293.11 63.28 293.83 63.28C301.61 63.28 308.52 67.08 312.8 72.92L312.93 73.26H324.74L319.08 60.22L301.41 19.49H300.85H300.87Z" fill="white"/>
</mask>
<g mask="url(#mask6_1_609)">
<path d="M280.558 7.98375L264.443 69.8494L321.79 84.787L337.905 22.9214L280.558 7.98375Z" fill="url(#paint6_linear_1_609)"/>
</g>
<mask id="mask7_1_609" style="mask-type:luminance" maskUnits="userSpaceOnUse" x="380" y="19" width="48" height="55">
<path d="M403.92 19.49L390.97 49.33C392.9 48.98 394.88 48.8 396.9 48.8C398.19 48.8 399.47 48.87 400.72 49.02L403.66 41.95L406.96 50.34L408.62 54.57L408.93 55.36C405.81 54.16 402.46 53.41 398.97 53.2C398.28 53.15 397.59 53.13 396.89 53.13C394.13 53.13 391.45 53.47 388.89 54.09L385.5 61.91L382.89 67.92L380.57 73.26H390.62L394.74 63.39C395.45 63.31 396.17 63.28 396.89 63.28C404.67 63.28 411.58 67.08 415.86 72.92L415.99 73.26H427.8L422.14 60.22L404.47 19.49H403.91H403.92Z" fill="white"/>
</mask>
<g mask="url(#mask7_1_609)">
<path d="M383.614 7.98134L367.499 69.847L424.846 84.7846L440.96 22.919L383.614 7.98134Z" fill="url(#paint7_linear_1_609)"/>
</g>
<mask id="mask8_1_609" style="mask-type:luminance" maskUnits="userSpaceOnUse" x="227" y="17" width="47" height="57">
<path d="M227.14 17.42V71.18H237.48L237.27 40.6L273.46 73.29H273.74V37.59L263.48 19.45L263.68 50.62L227.56 17.42H227.14Z" fill="white"/>
</mask>
<g mask="url(#mask8_1_609)">
<path d="M230.124 6.05959L213.533 69.7542L270.802 84.6717L287.393 20.977L230.124 6.05959Z" fill="url(#paint8_linear_1_609)"/>
</g>
<mask id="mask9_1_609" style="mask-type:luminance" maskUnits="userSpaceOnUse" x="132" y="18" width="48" height="55">
<path d="M167.57 18.47L156.49 47.63L144.66 18.47H132.43L156.05 72.59L179.66 18.47H167.57Z" fill="white"/>
</mask>
<g mask="url(#mask9_1_609)">
<path d="M135.444 6.94949L119.241 69.1538L176.675 84.1142L192.878 21.9098L135.444 6.94949Z" fill="url(#paint9_linear_1_609)"/>
</g>
<mask id="mask10_1_609" style="mask-type:luminance" maskUnits="userSpaceOnUse" x="330" y="21" width="48" height="53">
<path d="M364.74 21.56L355.07 38.74L343.86 21.56H330.86L347.12 46.61L330.16 73.29H342.81L352.87 55.45L364.45 73.29H377.6L360.63 47.28L377.11 21.56H364.74Z" fill="white"/>
</mask>
<g mask="url(#mask10_1_609)">
<path d="M333.189 9.99795L317.556 70.0153L374.602 84.8747L390.235 24.8574L333.189 9.99795Z" fill="url(#paint10_linear_1_609)"/>
</g>
<mask id="mask11_1_609" style="mask-type:luminance" maskUnits="userSpaceOnUse" x="184" y="18" width="36" height="38">
<path d="M184.29 18.47V55.08C186.05 51.03 188.58 47.37 191.69 44.33C192.57 43.48 193.48 42.67 194.44 41.92V31.68H194.48V28.3H219.57V18.46H184.29V18.47Z" fill="white"/>
</mask>
<g mask="url(#mask11_1_609)">
<path d="M186.539 9.86469L175.367 52.7536L217.336 63.6858L228.508 20.7969L186.539 9.86469Z" fill="url(#paint11_linear_1_609)"/>
</g>
<mask id="mask12_1_609" style="mask-type:luminance" maskUnits="userSpaceOnUse" x="184" y="36" width="37" height="35">
<path d="M213.91 36.76C206.37 37.66 199.6 41.07 194.44 46.12C188.58 51.84 184.8 59.69 184.34 68.41H184.29V70.2H220.56V60.36H196.61C198.25 56.79 200.76 53.71 203.87 51.38C207.47 48.66 211.88 46.96 216.66 46.7V36.54C215.73 36.58 214.82 36.65 213.91 36.76Z" fill="white"/>
</mask>
<g mask="url(#mask12_1_609)">
<path d="M186.602 27.6951L176.088 68.0583L218.261 79.0435L228.775 38.6803L186.602 27.6951Z" fill="url(#paint12_linear_1_609)"/>
</g>
<mask id="mask13_1_609" style="mask-type:luminance" maskUnits="userSpaceOnUse" x="24" y="20" width="34" height="36">
<path d="M53.7 32.43C51.6 29.87 48.56 30.19 47.12 31.33C45.6 32.52 45.21 34.92 46.26 36.92C46.32 36.71 46.37 36.56 46.39 36.42C46.7 34.98 47.38 34.28 48.77 34.45C49.86 34.59 51.05 34.9 51.95 35.52C54.46 37.23 55.5 41.77 54.21 44.72C53.42 46.54 51.9 47.16 50.28 46.04C49.2 45.3 48.27 44.26 47.4 43.24C46.71 42.42 46.21 41.43 45.52 40.36C45.52 40.81 45.52 41.06 45.52 41.3C45.56 42.86 45.4 44.38 44.71 45.78C44.16 46.92 43.25 47.55 42.02 47.45C40.48 47.33 39.19 46.6 38.24 45.31C37.63 44.49 37.21 43.56 37.69 42.55C37.89 42.12 38.33 41.65 38.74 41.54C39.41 41.36 40.03 41.73 40.29 42.44C40.45 42.87 40.46 43.35 40.54 43.89C40.69 43.78 40.82 43.7 40.9 43.58C41.73 42.55 42.15 41.4 41.61 40.11C41.01 38.65 39.88 37.7 38.34 37.69C37.3 37.69 36.26 38.05 35.17 38.26C32.04 32.57 26.95 32.7 24 34.7C26.81 36.14 29.28 38.04 31.38 40.44C34.94 44.52 36.98 49.37 38.04 54.71C38.07 54.82 38.09 54.93 38.12 55.03H57.17V20.02L57.15 20C53.85 23.51 52.87 27.64 53.68 32.43" fill="white"/>
</mask>
<g mask="url(#mask13_1_609)">
<path d="M42.9235 3.57603L6.6659 35.061L38.2755 71.4621L74.5331 39.9771L42.9235 3.57603Z" fill="url(#paint13_linear_1_609)"/>
</g>
<mask id="mask14_1_609" style="mask-type:luminance" maskUnits="userSpaceOnUse" x="59" y="20" width="34" height="36">
<path d="M59.74 55.03H78.63C78.73 54.8 78.81 54.53 78.87 54.23C80.66 45.8 84.83 39.12 92.34 34.99C92.51 34.89 92.66 34.75 92.91 34.55C91.05 33.52 89.19 33.25 87.27 33.64C84.59 34.18 82.93 36.15 81.62 38.46C78.75 37.08 76.37 37.66 75.31 39.94C74.69 41.28 75.22 43.14 76.42 43.81C76.42 43.59 76.4 43.37 76.42 43.14C76.48 42.19 77.04 41.58 77.93 41.51C78.88 41.42 79.2 42.12 79.29 42.87C79.36 43.44 79.34 44.19 79.03 44.61C78.39 45.47 77.64 46.36 76.74 46.89C74.44 48.23 72.52 47.39 71.8 44.76C71.45 43.46 71.42 42.06 71.23 40.56C70.96 41.01 70.74 41.42 70.49 41.81C69.42 43.47 68.33 45.13 66.6 46.12C64.93 47.07 63.48 46.55 62.73 44.77C62.09 43.28 62.09 41.72 62.33 40.14C62.78 37.18 64.54 35.13 67.12 34.56C69.22 34.09 70.05 34.62 70.63 36.78C70.63 36.83 70.72 36.84 70.77 36.88C71.72 34.65 71.29 32.45 69.65 31.26C67.78 29.89 65.38 30.28 63.24 32.38C64.02 27.64 63.05 23.51 59.75 20.03V55.05L59.74 55.03Z" fill="white"/>
</mask>
<g mask="url(#mask14_1_609)">
<path d="M78.6572 3.60084L42.4071 35.0793L74.0035 71.4653L110.254 39.9868L78.6572 3.60084Z" fill="url(#paint14_linear_1_609)"/>
</g>
<mask id="mask15_1_609" style="mask-type:luminance" maskUnits="userSpaceOnUse" x="71" y="59" width="22" height="38">
<path d="M71.74 59.65V96.32L75.66 89.53L79.57 82.75L83.49 75.97L85.81 71.94L87.21 69.53L88.07 68.03H77.54V71.94H81.53L79.57 75.33L75.66 82.11V63.36H86.48L85.18 65.61H89.47L92.91 59.65H71.74Z" fill="white"/>
</mask>
<g mask="url(#mask15_1_609)">
<path d="M83.8057 49.1782L53.5884 75.4178L80.8378 106.798L111.055 80.5582L83.8057 49.1782Z" fill="url(#paint15_linear_1_609)"/>
</g>
<mask id="mask16_1_609" style="mask-type:luminance" maskUnits="userSpaceOnUse" x="24" y="59" width="22" height="38">
<path d="M41.27 59.65V82.11L35.09 71.41L31.18 64.62L30.45 63.36H31.65V59.65H24.02L31.18 72.05L35.09 78.83L41.27 89.53L45.19 96.31V59.65H41.27Z" fill="white"/>
</mask>
<g mask="url(#mask16_1_609)">
<path d="M36.0845 49.1764L5.86731 75.4161L33.1167 106.796L63.3339 80.5564L36.0845 49.1764Z" fill="url(#paint16_linear_1_609)"/>
</g>
<mask id="mask17_1_609" style="mask-type:luminance" maskUnits="userSpaceOnUse" x="49" y="59" width="20" height="38">
<path d="M63.72 59.65V76.81C63.72 79.62 63.99 84.38 64.35 87.51L64.21 87.6C63.44 85.7 62.26 82.75 61.31 80.61L54.01 59.64H49.43V96.16L51.85 83.91C51.85 80.92 53.74 76.15 53.43 72.98L53.56 72.89C54.33 74.93 55.88 78.74 56.83 81.1L63.68 96.15H68.26V59.62H63.73L63.72 59.65Z" fill="white"/>
</mask>
<g mask="url(#mask17_1_609)">
<path d="M60.1566 50.3292L31.3437 75.3493L57.5178 105.491L86.3307 80.4709L60.1566 50.3292Z" fill="url(#paint17_linear_1_609)"/>
</g>
<circle cx="58.5" cy="58.5" r="58" stroke="#E9902B"/>
<defs>
<linearGradient id="paint0_linear_1_609" x1="84.7067" y1="60.7856" x2="479.987" y2="163.748" gradientUnits="userSpaceOnUse">
<stop stop-color="#BB8225"/>
<stop offset="0.51" stop-color="#E08C29"/>
<stop offset="1" stop-color="#F6952C"/>
</linearGradient>
<linearGradient id="paint1_linear_1_609" x1="47440.4" y1="12358.8" x2="47835.7" y2="12461.8" gradientUnits="userSpaceOnUse">
<stop stop-color="#BB8225"/>
<stop offset="0.51" stop-color="#E08C29"/>
<stop offset="1" stop-color="#F6952C"/>
</linearGradient>
<linearGradient id="paint2_linear_1_609" x1="47432.8" y1="12388.2" x2="47828.1" y2="12491.2" gradientUnits="userSpaceOnUse">
<stop stop-color="#BB8225"/>
<stop offset="0.51" stop-color="#E08C29"/>
<stop offset="1" stop-color="#F6952C"/>
</linearGradient>
<linearGradient id="paint3_linear_1_609" x1="88.2642" y1="47.1215" x2="483.544" y2="150.084" gradientUnits="userSpaceOnUse">
<stop stop-color="#BB8225"/>
<stop offset="0.51" stop-color="#E08C29"/>
<stop offset="1" stop-color="#F6952C"/>
</linearGradient>
<linearGradient id="paint4_linear_1_609" x1="91.0191" y1="36.5595" x2="486.299" y2="139.522" gradientUnits="userSpaceOnUse">
<stop stop-color="#BB8225"/>
<stop offset="0.51" stop-color="#E08C29"/>
<stop offset="1" stop-color="#F6952C"/>
</linearGradient>
<linearGradient id="paint5_linear_1_609" x1="91.9986" y1="32.8074" x2="487.279" y2="135.77" gradientUnits="userSpaceOnUse">
<stop stop-color="#BB8225"/>
<stop offset="0.51" stop-color="#E08C29"/>
<stop offset="1" stop-color="#F6952C"/>
</linearGradient>
<linearGradient id="paint6_linear_1_609" x1="102.018" y1="-5.66888" x2="497.298" y2="97.2939" gradientUnits="userSpaceOnUse">
<stop stop-color="#BB8225"/>
<stop offset="0.51" stop-color="#E08C29"/>
<stop offset="1" stop-color="#F6952C"/>
</linearGradient>
<linearGradient id="paint7_linear_1_609" x1="108.566" y1="-30.8198" x2="503.847" y2="72.1429" gradientUnits="userSpaceOnUse">
<stop stop-color="#BB8225"/>
<stop offset="0.51" stop-color="#E08C29"/>
<stop offset="1" stop-color="#F6952C"/>
</linearGradient>
<linearGradient id="paint8_linear_1_609" x1="99.4714" y1="4.10568" x2="494.751" y2="107.068" gradientUnits="userSpaceOnUse">
<stop stop-color="#BB8225"/>
<stop offset="0.51" stop-color="#E08C29"/>
<stop offset="1" stop-color="#F6952C"/>
</linearGradient>
<linearGradient id="paint9_linear_1_609" x1="92.429" y1="31.1089" x2="487.709" y2="134.072" gradientUnits="userSpaceOnUse">
<stop stop-color="#BB8225"/>
<stop offset="0.51" stop-color="#E08C29"/>
<stop offset="1" stop-color="#F6952C"/>
</linearGradient>
<linearGradient id="paint10_linear_1_609" x1="104.808" y1="-16.3843" x2="500.088" y2="86.5784" gradientUnits="userSpaceOnUse">
<stop stop-color="#BB8225"/>
<stop offset="0.51" stop-color="#E08C29"/>
<stop offset="1" stop-color="#F6952C"/>
</linearGradient>
<linearGradient id="paint11_linear_1_609" x1="97.7602" y1="10.6389" x2="493.04" y2="113.602" gradientUnits="userSpaceOnUse">
<stop stop-color="#BB8225"/>
<stop offset="0.51" stop-color="#E08C29"/>
<stop offset="1" stop-color="#F6952C"/>
</linearGradient>
<linearGradient id="paint12_linear_1_609" x1="47440.3" y1="12359.4" x2="47835.6" y2="12462.4" gradientUnits="userSpaceOnUse">
<stop stop-color="#BB8225"/>
<stop offset="0.51" stop-color="#E08C29"/>
<stop offset="1" stop-color="#F6952C"/>
</linearGradient>
<linearGradient id="paint13_linear_1_609" x1="16.9668" y1="11.0818" x2="73.8522" y2="76.5902" gradientUnits="userSpaceOnUse">
<stop stop-color="#BB8225"/>
<stop offset="0.51" stop-color="#E08C29"/>
<stop offset="1" stop-color="#F6952C"/>
</linearGradient>
<linearGradient id="paint14_linear_1_609" x1="37.5742" y1="-6.80239" x2="94.4596" y2="58.706" gradientUnits="userSpaceOnUse">
<stop stop-color="#BB8225"/>
<stop offset="0.51" stop-color="#E08C29"/>
<stop offset="1" stop-color="#F6952C"/>
</linearGradient>
<linearGradient id="paint15_linear_1_609" x1="21.284" y1="7.34213" x2="78.1694" y2="72.8505" gradientUnits="userSpaceOnUse">
<stop stop-color="#BB8225"/>
<stop offset="0.51" stop-color="#E08C29"/>
<stop offset="1" stop-color="#F6952C"/>
</linearGradient>
<linearGradient id="paint16_linear_1_609" x1="-6.44593" y1="31.4082" x2="50.4395" y2="96.9166" gradientUnits="userSpaceOnUse">
<stop stop-color="#BB8225"/>
<stop offset="0.51" stop-color="#E08C29"/>
<stop offset="1" stop-color="#F6952C"/>
</linearGradient>
<linearGradient id="paint17_linear_1_609" x1="7.93046" y1="18.9157" x2="64.8159" y2="84.4241" gradientUnits="userSpaceOnUse">
<stop stop-color="#BB8225"/>
<stop offset="0.51" stop-color="#E08C29"/>
<stop offset="1" stop-color="#F6952C"/>
</linearGradient>
</defs>
</svg>
